<svg xmlns="http://www.w3.org/2000/svg" version="1.1" xmlns:xlink="http://www.w3.org/1999/xlink" xmlns:svgjs="http://svgjs.com/svgjs" width="1000" height="1000"><rect width="1000" height="1000" rx="200" ry="200" fill="#ffffff"></rect><g transform="matrix(0.975609756097561,0,0,0.975609756097561,100.55891725493643,100.23183041084104)"><svg xmlns="http://www.w3.org/2000/svg" version="1.1" xmlns:xlink="http://www.w3.org/1999/xlink" xmlns:svgjs="http://svgjs.com/svgjs" width="820" height="820"><svg xmlns:osb="http://www.openswatchbook.org/uri/2009/osb" xmlns:dc="http://purl.org/dc/elements/1.1/" xmlns:cc="http://creativecommons.org/ns#" xmlns:rdf="http://www.w3.org/1999/02/22-rdf-syntax-ns#" xmlns:svg="http://www.w3.org/2000/svg" xmlns="http://www.w3.org/2000/svg" xmlns:xlink="http://www.w3.org/1999/xlink" xmlns:sodipodi="http://sodipodi.sourceforge.net/DTD/sodipodi-0.dtd" xmlns:inkscape="http://www.inkscape.org/namespaces/inkscape" version="1.1" id="svg3699" width="820" height="820" viewBox="0 0 820 820" sodipodi:docname="loading.svg" inkscape:version="0.92.3 (2405546, 2018-03-11)" inkscape:export-filename="/home/cpennington/Pictures/iyl_logo_gold_globe.png" inkscape:export-xdpi="48" inkscape:export-ydpi="48">
  <metadata id="metadata3705">
    <rdf:rdf>
      <cc:work rdf:about="">
        <dc:format>image/svg+xml</dc:format>
        <dc:type rdf:resource="http://purl.org/dc/dcmitype/StillImage"></dc:type>
        <dc:title></dc:title>
      </cc:work>
    </rdf:rdf>
  </metadata>
  <defs id="defs3703">
    <linearGradient inkscape:collect="always" id="linearGradient4624">
      <stop style="stop-color:#926f14;stop-opacity:1" offset="0" id="stop4620"></stop>
      <stop style="stop-color:#372a07;stop-opacity:0.98823529" offset="1" id="stop4622"></stop>
    </linearGradient>
    <linearGradient inkscape:collect="always" id="linearGradient4540-8-3">
      <stop style="stop-color:#000000;stop-opacity:1;" offset="0" id="stop4536"></stop>
      <stop style="stop-color:#000000;stop-opacity:0;" offset="1" id="stop4538"></stop>
    </linearGradient>
    <linearGradient id="linearGradient4530" osb:paint="solid">
      <stop style="stop-color:#000000;stop-opacity:1;" offset="0" id="stop4528"></stop>
    </linearGradient>
    <radialGradient inkscape:collect="always" xlink:href="#linearGradient4540-8-3" id="radialGradient4542" cx="498.37372" cy="402.22894" fx="498.37372" fy="402.22894" r="146.54935" gradientTransform="matrix(1,0,0,0.42040905,0,233.12825)" gradientUnits="userSpaceOnUse"></radialGradient>
    <linearGradient inkscape:collect="always" xlink:href="#linearGradient4624" id="linearGradient5120" x1="339.53976" y1="304.34674" x2="728.88849" y2="476.66122" gradientUnits="userSpaceOnUse" gradientTransform="translate(-51.366004,-3.383286)"></linearGradient>
    <filter style="color-interpolation-filters:sRGB" inkscape:label="Drop Shadow" id="filter6058">
      <feFlood flood-opacity="0.498039" flood-color="rgb(0,0,0)" result="flood" id="feFlood6048"></feFlood>
      <feComposite in="flood" in2="SourceGraphic" operator="in" result="composite1" id="feComposite6050"></feComposite>
      <feGaussianBlur in="composite1" stdDeviation="1.5" result="blur" id="feGaussianBlur6052"></feGaussianBlur>
      <feOffset dx="5" dy="5" result="offset" id="feOffset6054"></feOffset>
      <feComposite in="SourceGraphic" in2="offset" operator="over" result="fbSourceGraphic" id="feComposite6056"></feComposite>
      <feColorMatrix result="fbSourceGraphicAlpha" in="fbSourceGraphic" values="0 0 0 -1 0 0 0 0 -1 0 0 0 0 -1 0 0 0 0 1 0" id="feColorMatrix6060"></feColorMatrix>
      <feFlood id="feFlood6062" flood-opacity="0.498039" flood-color="rgb(0,0,0)" result="flood" in="fbSourceGraphic"></feFlood>
      <feComposite in2="fbSourceGraphic" id="feComposite6064" in="flood" operator="in" result="composite1"></feComposite>
      <feGaussianBlur id="feGaussianBlur6066" in="composite1" stdDeviation="1.5" result="blur"></feGaussianBlur>
      <feOffset id="feOffset6068" dx="5" dy="5" result="offset"></feOffset>
      <feComposite in2="offset" id="feComposite6070" in="fbSourceGraphic" operator="over" result="composite2"></feComposite>
    </filter>
    <filter style="color-interpolation-filters:sRGB" inkscape:label="Drop Shadow" id="filter6242">
      <feFlood flood-opacity="0.498039" flood-color="rgb(0,0,0)" result="flood" id="feFlood6232"></feFlood>
      <feComposite in="flood" in2="SourceGraphic" operator="in" result="composite1" id="feComposite6234"></feComposite>
      <feGaussianBlur in="composite1" stdDeviation="3" result="blur" id="feGaussianBlur6236"></feGaussianBlur>
      <feOffset dx="3" dy="3" result="offset" id="feOffset6238"></feOffset>
      <feComposite in="SourceGraphic" in2="offset" operator="over" result="fbSourceGraphic" id="feComposite6240"></feComposite>
      <feColorMatrix result="fbSourceGraphicAlpha" in="fbSourceGraphic" values="0 0 0 -1 0 0 0 0 -1 0 0 0 0 -1 0 0 0 0 1 0" id="feColorMatrix6244"></feColorMatrix>
      <feFlood id="feFlood6246" flood-opacity="0.498039" flood-color="rgb(0,0,0)" result="flood" in="fbSourceGraphic"></feFlood>
      <feComposite in2="fbSourceGraphic" id="feComposite6248" in="flood" operator="in" result="composite1"></feComposite>
      <feGaussianBlur id="feGaussianBlur6250" in="composite1" stdDeviation="3" result="blur"></feGaussianBlur>
      <feOffset id="feOffset6252" dx="3" dy="3" result="offset"></feOffset>
      <feComposite in2="offset" id="feComposite6254" in="fbSourceGraphic" operator="over" result="composite2"></feComposite>
    </filter>
    <filter style="color-interpolation-filters:sRGB" inkscape:label="Drop Shadow" id="filter6058-1">
      <feFlood flood-opacity="0.498039" flood-color="rgb(0,0,0)" result="flood" id="feFlood6048-8"></feFlood>
      <feComposite in="flood" in2="SourceGraphic" operator="in" result="composite1" id="feComposite6050-7"></feComposite>
      <feGaussianBlur in="composite1" stdDeviation="1.5" result="blur" id="feGaussianBlur6052-9"></feGaussianBlur>
      <feOffset dx="5" dy="5" result="offset" id="feOffset6054-2"></feOffset>
      <feComposite in="SourceGraphic" in2="offset" operator="over" result="fbSourceGraphic" id="feComposite6056-0"></feComposite>
      <feColorMatrix result="fbSourceGraphicAlpha" in="fbSourceGraphic" values="0 0 0 -1 0 0 0 0 -1 0 0 0 0 -1 0 0 0 0 1 0" id="feColorMatrix6060-2"></feColorMatrix>
      <feFlood id="feFlood6062-3" flood-opacity="0.498039" flood-color="rgb(0,0,0)" result="flood" in="fbSourceGraphic"></feFlood>
      <feComposite in2="fbSourceGraphic" id="feComposite6064-7" in="flood" operator="in" result="composite1"></feComposite>
      <feGaussianBlur id="feGaussianBlur6066-5" in="composite1" stdDeviation="1.5" result="blur"></feGaussianBlur>
      <feOffset id="feOffset6068-9" dx="5" dy="5" result="offset"></feOffset>
      <feComposite in2="offset" id="feComposite6070-2" in="fbSourceGraphic" operator="over" result="composite2"></feComposite>
    </filter>
    <filter style="color-interpolation-filters:sRGB" inkscape:label="Drop Shadow" id="filter6427">
      <feFlood flood-opacity="0.498039" flood-color="rgb(0,0,0)" result="flood" id="feFlood6417"></feFlood>
      <feComposite in="flood" in2="SourceGraphic" operator="in" result="composite1" id="feComposite6419"></feComposite>
      <feGaussianBlur in="composite1" stdDeviation="5" result="blur" id="feGaussianBlur6421"></feGaussianBlur>
      <feOffset dx="5" dy="5" result="offset" id="feOffset6423"></feOffset>
      <feComposite in="SourceGraphic" in2="offset" operator="over" result="composite2" id="feComposite6425"></feComposite>
    </filter>
    <filter style="color-interpolation-filters:sRGB" inkscape:label="Drop Shadow" id="filter6527">
      <feFlood flood-opacity="0.498039" flood-color="rgb(0,0,0)" result="flood" id="feFlood6517"></feFlood>
      <feComposite in="flood" in2="SourceGraphic" operator="in" result="composite1" id="feComposite6519"></feComposite>
      <feGaussianBlur in="composite1" stdDeviation="10" result="blur" id="feGaussianBlur6521"></feGaussianBlur>
      <feOffset dx="7" dy="7" result="offset" id="feOffset6523"></feOffset>
      <feComposite in="SourceGraphic" in2="offset" operator="over" result="fbSourceGraphic" id="feComposite6525"></feComposite>
      <feColorMatrix result="fbSourceGraphicAlpha" in="fbSourceGraphic" values="0 0 0 -1 0 0 0 0 -1 0 0 0 0 -1 0 0 0 0 1 0" id="feColorMatrix6625"></feColorMatrix>
      <feFlood id="feFlood6627" flood-opacity="0.498039" flood-color="rgb(0,0,0)" result="flood" in="fbSourceGraphic"></feFlood>
      <feComposite in2="fbSourceGraphic" id="feComposite6629" in="flood" operator="out" result="composite1"></feComposite>
      <feGaussianBlur id="feGaussianBlur6631" in="composite1" stdDeviation="15" result="blur"></feGaussianBlur>
      <feOffset id="feOffset6633" dx="7" dy="7" result="offset"></feOffset>
      <feComposite in2="fbSourceGraphic" id="feComposite6635" in="offset" operator="atop" result="fbSourceGraphic"></feComposite>
      <feColorMatrix result="fbSourceGraphicAlpha" in="fbSourceGraphic" values="0 0 0 -1 0 0 0 0 -1 0 0 0 0 -1 0 0 0 0 1 0" id="feColorMatrix6709"></feColorMatrix>
      <feFlood id="feFlood6711" flood-opacity="0.498039" flood-color="rgb(0,0,0)" result="flood" in="fbSourceGraphic"></feFlood>
      <feComposite in2="fbSourceGraphic" id="feComposite6713" in="flood" operator="out" result="composite1"></feComposite>
      <feGaussianBlur id="feGaussianBlur6715" in="composite1" stdDeviation="25.2632" result="blur"></feGaussianBlur>
      <feOffset id="feOffset6717" dx="-5" dy="-5" result="offset"></feOffset>
      <feComposite in2="fbSourceGraphic" id="feComposite6719" in="offset" operator="atop" result="composite2"></feComposite>
    </filter>
  </defs>
  <sodipodi:namedview pagecolor="#ffffff" bordercolor="#666666" borderopacity="1" objecttolerance="10" gridtolerance="10" guidetolerance="10" inkscape:pageopacity="0" inkscape:pageshadow="2" inkscape:window-width="1918" inkscape:window-height="1053" id="namedview3701" showgrid="false" inkscape:zoom="1.032" inkscape:cx="479.14975" inkscape:cy="439.79483" inkscape:window-x="0" inkscape:window-y="25" inkscape:window-maximized="0" inkscape:current-layer="g8101" showguides="true" inkscape:pagecheckerboard="true" inkscape:guide-bbox="true">
    <sodipodi:guide position="410,606.58915" orientation="1,0" id="guide1083" inkscape:locked="false" inkscape:label="" inkscape:color="rgb(0,0,255)"></sodipodi:guide>
    <sodipodi:guide position="137.5969,410" orientation="0,1" id="guide1085" inkscape:locked="false" inkscape:label="" inkscape:color="rgb(0,0,255)"></sodipodi:guide>
  </sodipodi:namedview>
  <g inkscape:groupmode="layer" id="layer4" inkscape:label="Disk" transform="translate(-7.3104262,11.568182)"></g>
  <g inkscape:groupmode="layer" id="layer1" inkscape:label="Globe" style="display:inline" transform="translate(-7.3104262,47.568181)"></g>
  <g inkscape:groupmode="layer" id="layer3" inkscape:label="Text" transform="translate(-7.3104262,47.568181)" style="display:inline"></g>
  <g inkscape:groupmode="layer" id="layer2" inkscape:label="Cycle" style="display:inline" transform="translate(-7.3104262,47.568181)">
    <g id="g8101" transform="matrix(0.94041103,0,0,0.94041103,37.794497,13.649279)" inkscape:transform-center-x="-25.99972" inkscape:transform-center-y="3.7613547">
      <path inkscape:connector-curvature="0" id="path4523" d="m 649.52779,241.5611 c 0,-0.19194 -0.7279,-0.91983 -1.61755,-1.61755 -1.46602,-1.14973 -1.49871,-1.11703 -0.34899,0.34898 1.2075,1.53968 1.96654,2.02931 1.96654,1.26857 z" style="display:inline;fill:none;stroke:#000000;stroke-width:0.92431265;stroke-opacity:1"></path>
      <path inkscape:connector-curvature="0" id="path3709" d="m 507.85761,176.64975 c -0.30714,-0.30714 -1.10437,-0.33997 -1.7716,-0.0729 -0.73735,0.29506 -0.51833,0.51408 0.55844,0.55843 0.97438,0.0401 1.52031,-0.17833 1.21316,-0.48547 z" style="display:inline;fill:none;stroke:#000000;stroke-width:0.92431265;stroke-opacity:1"></path>
      <g transform="matrix(0.8988304,0,0,0.8988304,71.217375,70.566607)" id="g6467" style="display:inline"></g>
      <g transform="matrix(0.86675651,0,0,0.86675651,-22.07969,-40.159042)" id="g4616" style="display:inline" inkscape:transform-center-x="-25.196971" inkscape:transform-center-y="10.661852">
        <path style="fill:#ff0000;fill-opacity:1;stroke:#ff3d3d;stroke-width:2.23246312;stroke-miterlimit:4;stroke-dasharray:none;stroke-opacity:1" d="m 73.709618,327.02511 c -0.705882,-13.65989 -1.893631,-37.4234 -2.639452,-52.80779 l -1.356032,-27.97165 8.253193,-12.015 c 23.365853,-34.016 53.820783,-67.2686 87.363253,-95.38867 30.03094,-25.17619 83.35717,-61.576144 87.73666,-59.888167 1.45521,0.560884 0.92389,1.500635 -2.71828,4.807895 -2.48987,2.260916 -11.87925,10.777529 -20.86528,18.925812 -25.80615,23.40026 -55.30354,55.5665 -76.49252,83.41333 l -8.49353,11.16231 12.77238,-13.29996 c 26.82886,-27.93709 48.45112,-47.7805 72.49077,-66.52702 23.74447,-18.516315 54.76393,-39.534014 75.52084,-51.17027 5.42898,-3.043462 13.88931,-7.876265 18.80073,-10.739555 18.12634,-10.56739 57.89155,-28.402197 67.70102,-30.364092 4.95438,-0.990874 3.97127,2.017606 -1.6304,4.989277 -5.77355,3.062866 -19.41844,11.400778 -18.63077,11.38461 0.30696,-0.0063 3.06963,-0.78198 6.13927,-1.723732 31.39901,-9.633083 54.35663,-12.159334 102.69331,-11.300353 33.37653,0.593127 38.85921,1.035504 65.29955,5.268793 25.49358,4.081705 43.79707,8.922002 65.59226,17.345658 23.83175,9.210753 55.50248,26.901148 72.65159,40.581154 9.90462,7.901011 5.63643,7.774999 -11.11567,-0.328172 C 631.22976,71.279997 590.72913,59.562881 544.53809,54.277502 526.32202,52.19314 488.87493,51.942881 470.30869,53.781415 377.41724,62.98009 288.1896,103.37103 223.94366,165.30421 c -7.2403,6.97966 -16.29766,16.22469 -20.12746,20.5445 l -6.96328,7.85421 12.26806,-9.84308 c 6.74744,-5.41369 17.32836,-14.29275 23.51316,-19.73125 50.09084,-44.04649 113.3035,-76.362984 185.29902,-94.731229 30.36316,-7.746569 44.23593,-9.320523 82.51379,-9.361667 37.11503,-0.03985 44.44239,0.74331 73.34194,7.839417 65.60153,16.108055 126.18966,49.521419 173.73794,95.813669 12.29389,11.96913 31.4199,33.43696 31.4199,35.26701 0,2.3348 -3.77784,0.89957 -9.85182,-3.74277 -5.93626,-4.53709 -27.75002,-19.33583 -31.44875,-21.33525 -0.92089,-0.4978 0.83717,1.37597 3.90681,4.16394 3.91559,3.5563 5.23506,5.42824 4.42143,6.27273 -0.81926,0.85031 -5.57089,-2.05219 -16.18536,-9.88676 -42.37202,-31.27486 -91.87482,-54.22871 -142.0402,-65.86233 -14.82501,-3.43799 -14.07995,-2.7988 3.81644,3.27411 26.55525,9.01121 49.02584,19.17398 72.01373,32.56968 9.30329,5.42128 13.50212,8.84693 23.52454,19.19278 14.8272,15.30565 24.28537,27.43616 22.65963,29.06191 -0.779,0.77899 -2.60552,-0.26064 -5.74225,-3.26842 -2.95682,-2.83526 -4.15021,-3.53587 -3.34102,-1.96142 0.69236,1.34715 1.75845,2.75812 2.36908,3.13551 1.42012,0.87769 1.45121,3.9031 0.0401,3.9031 -0.58858,0 -5.7372,-3.77241 -11.44137,-8.38314 -7.8733,-6.36404 -10.96686,-8.24319 -12.84418,-7.80205 -1.6402,0.38544 -4.83518,-0.8562 -9.48797,-3.68721 -10.68969,-6.50422 -23.13573,-13.19923 -29.33964,-15.78249 l -5.58116,-2.32396 3.90681,3.28687 c 6.23368,5.2445 1.88445,5.31802 -9.33781,0.15784 -65.83092,-30.27009 -141.40706,-38.04632 -212.78294,-21.89379 -48.51763,10.97966 -95.85479,32.16858 -135.28377,60.55531 -12.12478,8.72919 -48.48978,40.13324 -55.50786,47.9354 -8.1655,9.07779 -21.58135,27.12008 -28.18169,37.90008 l -5.53255,9.03607 -26.44351,14.01392 c -45.37754,24.04815 -85.694961,44.37581 -88.013966,44.37581 -2.116643,0 -2.286611,-1.2034 -3.507836,-24.83615 z" id="path4527" inkscape:connector-curvature="0"></path>
        <path style="fill:#030303;fill-opacity:1;stroke:#545454;stroke-width:2.23246312;stroke-miterlimit:4;stroke-dasharray:none;stroke-opacity:1" d="m 480.35478,946.08782 c -1.84179,-0.21471 -8.12059,-0.92386 -13.9529,-1.5759 -24.59502,-2.74964 -52.83612,-8.47142 -78.71607,-15.94824 -35.72131,-10.32004 -85.87614,-31.61428 -123.03358,-52.23638 -4.68168,-2.5983 -6.29737,-5.41835 -3.10433,-5.41835 0.90688,0 5.05089,1.28328 9.20891,2.85173 11.02008,4.15687 41.5373,13.28695 59.20849,17.71387 27.21938,6.81889 79.10876,16.00224 83.6806,14.80974 1.60575,-0.41885 1.5383,-0.53699 -0.36694,-0.64267 -4.37081,-0.24244 -42.25968,-9.99763 -58.87814,-15.15926 -57.95498,-18.0006 -117.01458,-46.02416 -169.2893,-80.32714 -19.43484,-12.75325 -42.97102,-31.78576 -41.33295,-33.42383 0.92983,-0.92983 2.32739,-0.65367 5.38791,1.06468 2.27284,1.2761 7.64857,4.23976 11.94606,6.58592 l 7.81362,4.26575 -13.66724,-13.84379 C 132.90071,752.15689 113.85701,724.03393 94.107657,684.49828 72.776013,641.79509 60.665414,603.72264 56.158909,565.19767 54.27808,549.11895 54.002011,514.61672 55.635328,499.76195 c 1.495213,-13.59874 1.90989,-15.12029 3.91151,-14.35219 1.262626,0.48451 1.662973,2.59637 1.662973,8.77218 0,24.4178 7.106254,65.22115 16.912706,97.111 10.50019,34.1458 30.367573,74.50315 51.175473,103.95462 57.08137,80.79292 145.20132,141.78038 236.08493,163.39343 7.36713,1.75198 15.15285,3.48757 17.30159,3.85688 5.09452,0.87559 -17.06728,-7.9384 -39.0681,-15.53781 -52.62665,-18.17805 -95.443,-43.05418 -140.765,-81.78395 C 159.75096,728.34478 133.62268,695.95403 110.37187,650.5309 101.235,632.681 97.063326,621.9573 90.778909,600.16523 81.526622,568.08169 77.078193,539.08878 76.058929,504.22687 c -1.32557,-45.33848 4.496482,-85.43953 18.496917,-127.40283 3.481828,-10.43602 6.777564,-18.57482 7.396414,-18.26539 1.4351,0.71755 1.36184,7.51017 -0.31799,29.48629 -0.7469,9.77122 -1.14137,17.9825 -0.87659,18.24728 0.26479,0.26478 1.11505,-2.70681 1.88949,-6.60354 1.16359,-5.85482 1.54535,-6.60045 2.19872,-4.29439 0.59779,2.10987 0.81779,2.26871 0.90192,0.65113 0.0612,-1.17668 0.38675,-1.86396 0.72345,-1.52726 0.3367,0.3367 -0.26774,6.8248 -1.34319,14.418 -1.50141,10.60065 -1.95473,21.32099 -1.95261,46.17652 0.003,35.53525 1.17835,48.22738 7.20052,77.75822 3.162,15.50542 11.60383,46.52472 13.0056,47.7887 0.3582,0.323 0.28743,-0.91966 -0.15727,-2.76144 -6.66248,-27.59451 -9.59891,-50.74 -10.26702,-80.92679 l -0.58056,-26.23145 3.90063,-13.95289 c 4.63792,-16.59025 12.01346,-36.0261 13.58069,-35.78754 0.61393,0.0934 1.03764,2.53296 0.94159,5.42113 -0.17121,5.14794 -0.15157,5.17986 0.99865,1.62345 1.17935,-3.6465 2.39847,-4.52187 3.59692,-2.58273 0.35522,0.57477 -0.21004,7.14342 -1.25615,14.59701 -1.42795,10.17428 -1.57864,13.75182 -0.60462,14.35381 0.88326,0.54588 1.46484,7.74143 1.82199,22.54234 0.28854,11.95728 1.02124,22.98518 1.62824,24.50645 0.99481,2.49323 1.11059,2.2982 1.17436,-1.97806 0.0509,-3.41375 0.5343,-4.74399 1.72384,-4.74399 1.96302,0 2.21685,1.1688 3.87853,17.85971 4.35598,43.75415 20.08816,91.03318 43.69799,131.32314 38.21053,65.20593 104.9977,122.09608 175.69107,149.65586 26.10287,10.1762 54.04906,18.94936 66.41578,20.84996 13.67097,2.10103 33.76075,4.01623 42.14294,4.01756 5.56979,8.9e-4 6.97632,0.69595 27.90579,13.78996 24.14581,15.10624 69.65299,44.27474 79.80536,51.15244 3.53008,2.39145 6.41731,4.95724 6.41604,5.70178 -10e-4,0.74453 -19.5711,14.03688 -43.48853,29.53854 l -43.48626,28.18485 -7.57905,-0.16724 c -4.16848,-0.092 -9.08597,-0.34292 -10.92775,-0.55764 z" id="path4535" inkscape:connector-curvature="0"></path>
        <g id="g4520" transform="matrix(1.1162316,0,0,1.1162316,-13.513514,-46.833005)">
          <path inkscape:connector-curvature="0" id="path4531-3" d="m 563.82705,807.92394 c 0,-0.81703 0.9375,-1.7687 2.08334,-2.11481 3.15024,-0.95158 35.64515,-16.67119 35.25939,-17.05695 -0.18476,-0.18476 -2.70685,0.36815 -5.60463,1.2287 -2.89779,0.86055 -5.52431,1.30902 -5.83673,0.9966 -0.31242,-0.31242 0.0695,-0.57492 0.84863,-0.58334 1.11313,-0.012 1.14184,-0.1897 0.13401,-0.8292 -0.84672,-0.53727 1.19251,-1.76763 6,-3.62006 19.16568,-7.38497 48.9684,-23.54369 68.36277,-37.06557 19.98035,-13.93042 46.83055,-37.75117 59.70641,-52.96986 l 5.07633,-6 -6.93142,6.57757 c -14.53003,13.78826 -29.20642,25.27952 -47.56889,37.24529 -23.48341,15.30279 -32.58389,18.98298 -58.68955,23.73379 -11.52765,2.09785 -16.8133,2.2399 -16.49685,0.44335 0.0969,-0.55 2.57188,-1.76574 5.5,-2.70164 l 5.32386,-1.70165 -5,0.45959 c -3.59073,0.33005 -4.43629,0.1953 -3,-0.47807 l 2,-0.93766 -2,-0.12482 c -1.17973,-0.0736 0.0507,-0.93443 3,-2.09884 14.19273,-5.60335 19.50082,-8.26934 19.51605,-9.80194 0.01,-0.97998 3.22884,-3.38432 8.18715,-6.11497 8.70652,-4.79487 28.7968,-17.74492 28.7968,-18.56221 0,-0.26903 -1.32765,0.19741 -2.95034,1.03653 -1.62269,0.83912 -3.62113,1.52568 -4.44098,1.52568 -3.50543,0 -2.0683,-2.01016 4.93084,-6.89696 27.93697,-19.5056 55.6747,-47.68713 75.40521,-76.6117 42.64165,-62.51188 61.85445,-147.26263 50.50864,-222.80178 -3.13008,-20.83972 -9.49752,-49.89739 -13.02615,-59.44449 -1.98098,-5.35979 -7.07773,-16.94507 -11.32609,-25.74507 l -7.7243,-16 0.7495,-21.5 c 1.52638,-43.78616 4.15717,-92.53008 5.04603,-93.49448 0.59191,-0.6422 14.09604,5.69487 38.12212,17.88951 53.16901,26.9864 46.26878,22.00378 54.1037,39.06798 17.75056,38.66009 29.95322,80.09368 35.49952,120.53699 4.27227,31.15313 5.31538,42.24837 5.83673,62.08333 0.47349,18.01409 0.35072,20.58334 -0.98362,20.58334 -1.03865,0 -1.71269,-1.37189 -2.11455,-4.30381 -2.25106,-16.42324 -12.06597,-55.23589 -20.44854,-80.86286 -4.87894,-14.91577 -19.14544,-51.87561 -19.77931,-51.24174 -0.18257,0.18256 1.23912,5.17688 3.1593,11.09849 11.46545,35.35807 20.14098,80.00564 24.02528,123.64325 1.95513,21.96454 2.23626,80.43792 0.46877,97.5 -2.09122,20.18705 -5.13647,37.16667 -6.66576,37.16667 -1.12021,0 -1.396,-2.46943 -1.396,-12.5 0,-6.875 -0.2445,-12.2555 -0.54334,-11.95666 -0.29884,0.29884 -2.3466,7.46134 -4.55057,15.91667 -11.46841,43.99739 -49.79949,106.6886 -89.36839,146.16367 -20.40905,20.36066 -43.7208,36.8415 -71.0377,50.22192 -19.38966,9.49748 -21.16667,10.16932 -21.16667,8.0025 0,-0.83282 5.1985,-4.97617 11.55222,-9.20745 26.10405,-17.38408 57.3044,-45.86158 76.48187,-69.80732 28.73998,-35.88587 49.36709,-75.75778 62.59568,-120.99657 20.01425,-68.44426 20.59276,-139.55252 1.6685,-205.0858 -2.97257,-10.29378 -7.64908,-23.18131 -6.09369,-16.79297 0.28452,1.16857 1.3955,7.91857 2.46885,15 1.07334,7.08144 3.06946,18.2418 4.43581,24.8008 4.979,23.90107 6.06053,36.58408 6.01819,70.57454 -0.0423,33.94654 -1.25658,47.34763 -6.98737,77.11355 -8.00913,41.59961 -18.66155,71.94903 -35.93691,102.38645 -14.81155,26.09644 -26.41177,41.39196 -46.82302,61.73869 -47.16421,47.01509 -107.03204,79.14216 -171.8391,92.21456 -14.65007,2.9551 -16.54103,3.07642 -16.54103,1.06124 z" style="display:inline;fill:#a03ca0;fill-opacity:1;stroke:#be52be;stroke-width:2;stroke-miterlimit:4;stroke-dasharray:none;stroke-opacity:1"></path>
          <path inkscape:connector-curvature="0" id="path4531" d="m 534.84863,816.28744 c 0,-0.81703 0.9375,-1.7687 2.08334,-2.11481 3.15024,-0.95158 35.64515,-16.67119 35.25939,-17.05695 -0.18476,-0.18476 -2.70685,0.36815 -5.60463,1.2287 -2.89779,0.86055 -5.52431,1.30902 -5.83673,0.9966 -0.31242,-0.31242 0.0695,-0.57492 0.84863,-0.58334 1.11313,-0.012 1.14184,-0.1897 0.13401,-0.8292 -0.84672,-0.53727 1.19251,-1.76763 6,-3.62006 19.16568,-7.38497 48.9684,-23.54369 68.36277,-37.06557 19.98035,-13.93042 46.83055,-37.75117 59.70641,-52.96986 l 5.07633,-6 -6.93142,6.57757 c -14.53003,13.78826 -29.20642,25.27952 -47.56889,37.24529 -23.48341,15.30279 -32.58389,18.98298 -58.68955,23.73379 -11.52765,2.09785 -16.8133,2.2399 -16.49685,0.44335 0.0969,-0.55 2.57188,-1.76574 5.5,-2.70164 l 5.32386,-1.70165 -5,0.45959 c -3.59073,0.33005 -4.43629,0.1953 -3,-0.47807 l 2,-0.93766 -2,-0.12482 c -1.17973,-0.0736 0.0507,-0.93443 3,-2.09884 14.19273,-5.60335 19.50082,-8.26934 19.51605,-9.80194 0.01,-0.97998 3.22884,-3.38432 8.18715,-6.11497 8.70652,-4.79487 28.7968,-17.74492 28.7968,-18.56221 0,-0.26903 -1.32765,0.19741 -2.95034,1.03653 -1.62269,0.83912 -3.62113,1.52568 -4.44098,1.52568 -3.50543,0 -2.0683,-2.01016 4.93084,-6.89696 27.93697,-19.5056 55.6747,-47.68713 75.40521,-76.6117 42.64165,-62.51188 61.85445,-147.26263 50.50864,-222.80178 -3.13008,-20.83972 -9.49752,-49.89739 -13.02615,-59.44449 -1.98098,-5.35979 -7.07773,-16.94507 -11.32609,-25.74507 l -7.7243,-16 0.7495,-21.5 c 1.52638,-43.78616 4.15717,-92.53008 5.04603,-93.49448 0.59191,-0.6422 14.09604,5.69487 38.12212,17.88951 53.16901,26.9864 46.26878,22.00378 54.1037,39.06798 17.75056,38.66009 29.95322,80.09368 35.49952,120.53699 4.27227,31.15313 5.31538,42.24837 5.83673,62.08333 0.47349,18.01409 0.35072,20.58334 -0.98362,20.58334 -1.03865,0 -1.71269,-1.37189 -2.11455,-4.30381 -2.25106,-16.42324 -12.06597,-55.23589 -20.44854,-80.86286 -4.87894,-14.91577 -19.14544,-51.87561 -19.77931,-51.24174 -0.18257,0.18256 1.23912,5.17688 3.1593,11.09849 11.46545,35.35807 20.14098,80.00564 24.02528,123.64325 1.95513,21.96454 2.23626,80.43792 0.46877,97.5 -2.09122,20.18705 -5.13647,37.16667 -6.66576,37.16667 -1.12021,0 -1.396,-2.46943 -1.396,-12.5 0,-6.875 -0.2445,-12.2555 -0.54334,-11.95666 -0.29884,0.29884 -2.3466,7.46134 -4.55057,15.91667 -11.46841,43.99739 -49.79949,106.6886 -89.36839,146.16367 -20.40905,20.36066 -43.7208,36.8415 -71.0377,50.22192 -19.38966,9.49748 -21.16667,10.16932 -21.16667,8.0025 0,-0.83282 5.1985,-4.97617 11.55222,-9.20745 26.10405,-17.38408 57.3044,-45.86158 76.48187,-69.80732 28.73998,-35.88587 49.36709,-75.75778 62.59568,-120.99657 20.01425,-68.44426 20.59276,-139.55252 1.6685,-205.0858 -2.97257,-10.29378 -7.64908,-23.18131 -6.09369,-16.79297 0.28452,1.16857 1.3955,7.91857 2.46885,15 1.07334,7.08144 3.06946,18.2418 4.43581,24.8008 4.979,23.90107 6.06053,36.58408 6.01819,70.57454 -0.0423,33.94654 -1.25658,47.34763 -6.98737,77.11355 -8.00913,41.59961 -18.66155,71.94903 -35.93691,102.38645 -14.81155,26.09644 -26.41177,41.39196 -46.82302,61.73869 -47.16421,47.01509 -107.03204,79.14216 -171.8391,92.21456 -14.65007,2.9551 -16.54103,3.07642 -16.54103,1.06124 z" style="fill:#0000ff;fill-opacity:1;stroke:#3030ff;stroke-width:2;stroke-miterlimit:4;stroke-dasharray:none;stroke-opacity:1"></path>
        </g>
      </g>
    </g>
  </g>
</svg></svg></g></svg>